{"title":"The Crow City of Angels 1996 720p Brrip x264 SSloco","uid":11984871,"size":679212555,"categoryP":"video","categoryS":"hd___movies","magnet":"?xt=urn:btih:b965400fe1003e4e17f3e3a8d1d8cc862ba20a77&amp;dn=The+Crow+City+of+Angels+1996+720p+Brrip+x264+SSloco&amp;tr=udp%3A%2F%2Ftracker.openbittorrent.com%3A80&amp;tr=udp%3A%2F%2Fopen.demonii.com%3A1337&amp;tr=udp%3A%2F%2Ftracker.coppersurfer.tk%3A6969&amp;tr=udp%3A%2F%2Fexodus.desync.com%3A6969","seeders":0,"leechers":0,"uploader":"myhoes14","files":1,"time":1433325520,"description":"Source:The.Crow.City.of.Angels.1996.720p.BluRay.x264-NODLABS\n\nMedia Info\n\nFormat : MPEG-4\nFormat profile : Base Media\nCodec ID : isom\nFile size : 648 MiB\nDuration : 1h 25mn\nOverall bit rate mode : Variable\nOverall bit rate : 1 055 Kbps\nEncoded date : UTC 2015-02-23 05:03:41\nTagged date : UTC 2015-02-23 05:03:41\n\nVideo\nID : 1\nFormat : AVC\nFormat/Info : Advanced Video Codec\nFormat profile : &lt;a class=&quot;__cf_email__&quot; href=&quot;/cdn-cgi/l/email-protection&quot; data-cfemail=&quot;6921000e0129255d4758&quot;&gt;[email&amp;#160;protected]&lt;/a&gt;&lt;script data-cfhash='f9e31' type=&quot;text/javascript&quot;&gt;\n/* &lt;![CDATA[ */!function(){try{var t=&quot;currentScript&quot;in document?document.currentScript:function(){for(var t=document.getElementsByTagName(&quot;script&quot;),e=t.length;e--;)if(t[e].getAttribute(&quot;data-cfhash&quot;))return t[e]}();if(t&amp;&amp;t.previousSibling){var e,r,n,i,c=t.previousSibling,a=c.getAttribute(&quot;data-cfemail&quot;);if(a){for(e=&quot;&quot;,r=parseInt(a.substr(0,2),16),n=2;a.length-n;n+=2)i=parseInt(a.substr(n,2),16)^r,e+=String.fromCharCode(i);e=document.createTextNode(e),c.parentNode.replaceChild(e,c)}t.parentNode.removeChild(t);}}catch(u){}}()/* ]]&gt; */&lt;/script&gt;\nFormat settings, CABAC : Yes\nFormat settings, ReFrames : 5 frames\nCodec ID : avc1\nCodec ID/Info : Advanced Video Coding\nDuration : 1h 25mn\nBit rate : 1 000 Kbps\nMaximum bit rate : 5 477 Kbps\nWidth : 1 280 pixels\nHeight : 688 pixels\nDisplay aspect ratio : 1.85:1\nFrame rate mode : Constant\nFrame rate : 23.976 fps\nColor space : YUV\nChroma subsampling : 4:2:0\nBit depth : 8 bits\nScan type : Progressive\nBits/(Pixel*Frame) : 0.047\nStream size : 614 MiB (95%)\nWriting library : x264 core 142 r2431 ac76440\nEncoding settings : cabac=1 / ref=5 / deblock=1:-1:-1 / analyse=0x3:0x133 / me=umh / subme=9 / psy=1 / psy_rd=1.00:0.00 / mixed_ref=1 / me_range=24 / chroma_me=1 / trellis=2 / 8x8dct=1 / cqm=0 / deadzone=21,11 / fast_pskip=1 / chroma_qp_offset=-2 / threads=6 / lookahead_threads=1 / sliced_threads=0 / nr=0 / decimate=1 / interlaced=0 / bluray_compat=0 / constrained_intra=0 / bframes=3 / b_pyramid=2 / b_adapt=2 / b_bias=0 / direct=3 / weightb=1 / open_gop=0 / weightp=2 / keyint=240 / keyint_min=23 / scenecut=40 / intra_refresh=0 / rc_lookahead=60 / rc=2pass / mbtree=1 / bitrate=1000 / ratetol=1.0 / qcomp=0.60 / qpmin=0 / qpmax=69 / qpstep=4 / cplxblur=20.0 / qblur=0.5 / vbv_maxrate=62500 / vbv_bufsize=78125 / nal_hrd=none / filler=0 / ip_ratio=1.40 / aq=1:1.00\nEncoded date : UTC 2015-02-23 05:03:41\nTagged date : UTC 2015-02-23 05:03:57\nColor primaries : BT.709\nMatrix coefficients : BT.709\nColor range : Limited\n\nAudio\nID : 2\nFormat : AAC\nFormat/Info : Advanced Audio Codec\nFormat profile : HE-AAC / LC\nCodec ID : 40\nDuration : 1h 25mn\nBit rate mode : Variable\nBit rate : 51.8 Kbps\nMaximum bit rate : 61.4 Kbps\nChannel(s) : 2 channels\nChannel positions : Front: L R\nSampling rate : 48.0 KHz / 24.0 KHz\nCompression mode : Lossy\nStream size : 31.8 MiB (5%)\nLanguage : English\nEncoded date : UTC 2015-02-23 05:01:07\nTagged date : UTC 2015-02-23 05:03:57\n\nMenu\n00:00:00.000 : 00:00:00.000\n00:05:59.192 : 00:05:59.192\n00:10:43.743 : 00:10:43.743\n00:15:29.862 : 00:15:29.862\n00:19:44.383 : 00:19:44.383\n00:24:14.720 : 00:24:14.720\n00:29:30.068 : 00:29:30.068\n00:33:10.488 : 00:33:10.488\n00:39:09.247 : 00:39:09.247\n00:47:26.210 : 00:47:26.210\n00:56:20.277 : 00:56:20.277\n01:00:47.744 : 01:00:47.744\n01:06:11.968 : 01:06:11.968\n01:11:09.532 : 01:11:09.532\n01:18:17.860 : 01:18:17.860","torrent":{"xt":"urn:btih:b965400fe1003e4e17f3e3a8d1d8cc862ba20a77","amp;dn":"The+Crow+City+of+Angels+1996+720p+Brrip+x264+SSloco","amp;tr":["udp%3A%2F%2Ftracker.openbittorrent.com%3A80","udp%3A%2F%2Fopen.demonii.com%3A1337","udp%3A%2F%2Ftracker.coppersurfer.tk%3A6969","udp%3A%2F%2Fexodus.desync.com%3A6969"],"infoHash":"b965400fe1003e4e17f3e3a8d1d8cc862ba20a77","infoHashBuffer":{"type":"Buffer","data":[185,101,64,15,225,0,62,78,23,243,227,168,209,216,204,134,43,162,10,119]},"announce":[],"urlList":[]}}